<?xml version="1.0" encoding="utf-8"?>
<!-- Generator: Adobe Illustrator 26.3.1, SVG Export Plug-In . SVG Version: 6.00 Build 0)  -->
<svg version="1.1" id="Capa_1" xmlns:serif="http://www.serif.com/"
	 xmlns="http://www.w3.org/2000/svg" xmlns:xlink="http://www.w3.org/1999/xlink" x="0px" y="0px" viewBox="0 0 456 456"
	 style="enable-background:new 0 0 456 456;" xml:space="preserve">
<style type="text/css">
	.st0{fill:#404C69;}
	.st1{fill:#DE1F26;}
	.st2{fill:#FFFFFF;}
</style>
<circle class="st0" cx="226.4" cy="228" r="189.6"/>
<path class="st1" d="M277.5,119.6c11.8-11.8,32-3.4,32,13.2v19.6v86.1v19.6c0,16.7-20.2,25-32,13.2l-62.7-62.7
	c-7.3-7.3-7.3-19.2,0-26.5L277.5,119.6z"/>
<path class="st2" d="M214.9,182.3l11.5-11.5l-51.1-51.1c-11.8-11.8-31.9-3.4-31.9,13.2v19.6v86.1v19.6c0,16.7,20.2,25,31.9,13.2
	l51.1-51.1l-11.5-11.5C207.6,201.5,207.6,189.7,214.9,182.3z"/>
<path class="st2" d="M284.4,308.9c2.1-2.1,5.7-0.6,5.7,2.4v3.5v15.4v3.5c0,3-3.6,4.5-5.7,2.4l-11.2-11.2c-1.3-1.3-1.3-3.4,0-4.7
	L284.4,308.9z"/>
<g>
	<g>
		<path class="st2" d="M149.2,320.3v16.9h-6.9v-16c0-5.2-2.4-7.8-6.6-7.8c-4.5,0-7.7,3-7.7,8.8v14.9h-6.9v-16c0-5.2-2.4-7.8-6.6-7.8
			c-4.6,0-7.7,3-7.7,8.8v14.9H100v-29.4h6.6v3.7c2.2-2.6,5.6-4.1,9.6-4.1c4.3,0,7.9,1.6,9.9,4.9c2.4-3,6.3-4.9,11-4.9
			C144.3,307.4,149.2,311.4,149.2,320.3z"/>
		<path class="st2" d="M180.3,328.5l3.6,4.2c-2.6,3.1-6.7,4.8-11.8,4.8c-9.9,0-16.2-6.3-16.2-15.1c0-8.8,6.4-15,15.1-15
			c8.2,0,14.8,5.5,14.9,14.7l-22.5,4.4c1.4,3.4,4.6,5.2,8.9,5.2C175.6,331.7,178.2,330.7,180.3,328.5z M162.6,322.1L162.6,322.1
			l16.6-3.1c-0.9-3.6-4-6-8.2-6C166,312.9,162.6,316.4,162.6,322.1z"/>
		<path class="st2" d="M209.1,335.6c-1.7,1.3-4.1,2-6.6,2c-6.4,0-10.1-3.4-10.1-9.9v-26.4h6.9v6.7h7.9v5.5h-7.9v14
			c0,2.9,1.5,4.4,4.1,4.4c1.4,0,2.8-0.4,3.9-1.2L209.1,335.6z"/>
		<path class="st2" d="M231.8,307.4v6.6c-0.6-0.1-1.1-0.2-1.6-0.2c-5.2,0-8.5,3.1-8.5,9.1v14.3h-6.9v-29.4h6.6v4.3
			C223.3,308.9,226.9,307.4,231.8,307.4z"/>
		<path class="st2" d="M234.9,322.4c0-8.8,6.6-15,15.6-15c9.1,0,15.7,6.2,15.7,15c0,8.8-6.6,15.1-15.7,15.1
			C241.5,337.5,234.9,331.3,234.9,322.4z M259.3,322.4c0-5.6-3.7-9.2-8.8-9.2c-5,0-8.7,3.6-8.7,9.2c0,5.6,3.7,9.2,8.7,9.2
			C255.6,331.6,259.3,328.1,259.3,322.4z"/>
		<path class="st2" d="M302.4,298.8c0-2.3,1.9-4.1,4.4-4.1s4.4,1.7,4.4,4c0,2.4-1.8,4.3-4.4,4.3
			C304.2,302.9,302.4,301.1,302.4,298.8z M303.3,307.7h6.9v29.4h-6.9V307.7z"/>
		<path class="st2" d="M348.2,320.3v16.9h-6.9v-16c0-5.2-2.6-7.8-7-7.8c-4.9,0-8.2,3-8.2,8.9v14.9h-6.9v-29.4h6.6v3.8
			c2.3-2.7,5.8-4.1,10.1-4.1C343,307.4,348.2,311.4,348.2,320.3z"/>
	</g>
</g>
</svg>
